<svg xmlns="http://www.w3.org/2000/svg"
     viewBox="0 0 300 300"
     width="100%" height="100%">
  <defs>
    <!-- Linear Gradient -->
    <linearGradient id="grad1" x1="0%" y1="0%" x2="100%" y2="100%">
      <stop offset="0%" stop-color="#1ECBE1" />
      <stop offset="50%" stop-color="#00ADFF" />
      <stop offset="100%" stop-color="#8A2BE2" />
    </linearGradient>

    <!-- Radial Gradient -->
    <radialGradient id="grad2" cx="50%" cy="50%" r="50%" fx="50%" fy="50%">
      <stop offset="0%" stop-color="rgba(30, 203, 225, 0.3)" />
      <stop offset="100%" stop-color="rgba(0, 131, 255, 0)" />
    </radialGradient>

    <style type="text/css">
      .textStyle {
        font-family: 'Orbitron', sans-serif;
        font-size: 32px;
        fill: url(#grad1);
        text-anchor: middle;
        dominant-baseline: middle;
      }
      .hexagon-stroke {
        stroke: url(#grad1);
        stroke-width: 8;
        stroke-linejoin: round;
        fill: none;
      }
      .network-line {
        stroke: url(#grad1);
        stroke-width: 2.5;
        opacity: 0.6;
      }
      .a-shape-stroke {
        stroke: url(#grad1);
        stroke-width: 6;
        stroke-linecap: round;
        stroke-linejoin: round;
        fill: none;
      }
      .a-crossbar {
        stroke: url(#grad1);
        stroke-width: 6;
      }
    </style>
  </defs>

  <!-- Radial glow background -->
  <circle cx="150" cy="150" r="120" fill="url(#grad2)" />

  <!-- Abstract Hexagon Shape -->
  <polygon points="
    150,30
    220,70
    240,140
    180,230
    120,230
    60,140
    80,70
  " class="hexagon-stroke" />

  <!-- Network Lines -->
  <line x1="150" y1="30" x2="180" y2="230" class="network-line" />
  <line x1="150" y1="30" x2="120" y2="230" class="network-line" />
  <line x1="60" y1="140" x2="240" y2="140" class="network-line" />
  <line x1="80" y1="70" x2="220" y2="70" class="network-line" />
  <line x1="60" y1="140" x2="150" y2="30" class="network-line" />
  <line x1="240" y1="140" x2="150" y2="30" class="network-line" />
  <line x1="120" y1="230" x2="220" y2="70" class="network-line" />
  <line x1="180" y1="230" x2="80" y2="70" class="network-line" />

  <!-- Abstract "A" Shape -->
  <path d="
    M 150 80
    L 170 180
    L 150 160
    L 130 180
    Z
  " class="a-shape-stroke" />

  <!-- Crossbar of the "A" -->
  <line x1="140" y1="140" x2="160" y2="140" class="a-crossbar" />

  <!-- Text Label -->
  <text x="150" y="260" class="textStyle">Abbeey Labs</text>
</svg>
